PathFileType	4	(X/Y/Z)	C:\Users\Basilio\Documents\Thesis Gigler\squatting_fais\c3dfiles\075\SLS_back_pre3\markers_experimental.trc
DataRate	CameraRate	NumFrames	NumMarkers	Units	OrigDataRate	OrigDataStartFrame	OrigNumFrames
200.000000	200.000000	4	61	mm	200.000000	1169	1336
Frame#	Time	FHD			LBHD			C7			T10			CLAV			LSHO			LUUPA			LMUPA			LDUPA			LLEP			LMEP			LRAD			LUL			LRFIN			RSHO			RUPA1			RMUPA			RDUPA			RLEP			RMEP			RRAD			RUL			RUFIN			LASI			RASI			USACR			LSACR			RSACR			LTHI1			LTHI2			LTHI3			LTHI4			LLFC			LMFC			LTIB1			LTIB2			LTIB3			LTIB4			LLMAL			LMMAL			LHEE			LMT1			LMT2			LMT5			RTHI			RTHI2			RTHI3			RTHI4			RLFC			RMFC			RTIB1			RTIB2			RTIB3			RTIB4			RLMAL			RMMAL			RHEE			RMT1			RMT2			RMT5			RBHD			
		X1	Y1	Z1	X2	Y2	Z2	X3	Y3	Z3	X4	Y4	Z4	X5	Y5	Z5	X6	Y6	Z6	X7	Y7	Z7	X8	Y8	Z8	X9	Y9	Z9	X10	Y10	Z10	X11	Y11	Z11	X12	Y12	Z12	X13	Y13	Z13	X14	Y14	Z14	X15	Y15	Z15	X16	Y16	Z16	X17	Y17	Z17	X18	Y18	Z18	X19	Y19	Z19	X20	Y20	Z20	X21	Y21	Z21	X22	Y22	Z22	X23	Y23	Z23	X24	Y24	Z24	X25	Y25	Z25	X26	Y26	Z26	X27	Y27	Z27	X28	Y28	Z28	X29	Y29	Z29	X30	Y30	Z30	X31	Y31	Z31	X32	Y32	Z32	X33	Y33	Z33	X34	Y34	Z34	X35	Y35	Z35	X36	Y36	Z36	X37	Y37	Z37	X38	Y38	Z38	X39	Y39	Z39	X40	Y40	Z40	X41	Y41	Z41	X42	Y42	Z42	X43	Y43	Z43	X44	Y44	Z44	X45	Y45	Z45	X46	Y46	Z46	X47	Y47	Z47	X48	Y48	Z48	X49	Y49	Z49	X50	Y50	Z50	X51	Y51	Z51	X52	Y52	Z52	X53	Y53	Z53	X54	Y54	Z54	X55	Y55	Z55	X56	Y56	Z56	X57	Y57	Z57	X58	Y58	Z58	X59	Y59	Z59	X60	Y60	Z60	X61	Y61	Z61	

1170	5.845	-217.487533569336	1720.924194335938	-884.7615356445315	-356.1413574218751	1601.210571289063	-962.4674072265627	-396.0953369140626	1487.19580078125	-905.0639648437502	-416.631072998047	1161.943481445313	-904.1425781250002	-253.116683959961	1425.25439453125	-898.117126464844	-285.3019714355469	1455.189086914063	-1059.173461914063	-296.6699218750001	1263.833251953125	-1186.416015625	-254.2331542968751	1242.230590820313	-1169.493408203125	-277.2392578125001	1199.1787109375	-1206.768920898438	-245.5420532226563	1120.51611328125	-1205.911010742188	-313.4153137207032	1095.8359375	-1146.225952148438	-141.3169708251953	1130.313842773438	-971.9880981445315	-93.65968322753908	1085.846069335938	-1012.013610839844	-73.28243255615236	1141.521362304688	-919.1051025390627	-297.5011901855469	1448.85986328125	-737.4973144531251	-315.6011352539063	1250.627075195313	-622.0217895507814	-274.7830200195313	1226.145629882813	-635.5453491210939	-303.9893798828126	1182.380737304688	-605.0503540039064	-279.9086303710938	1113.57275390625	-601.9093627929689	-331.8772277832032	1073.778442382813	-660.0958251953126	-128.8477325439453	1144.385620117188	-827.9217529296877	-99.93695068359378	1092.945922851563	-778.2659912109377	-51.65291213989259	1144.797485351563	-872.636413574219	-254.6393585205079	989.2053833007815	-1029.987426757813	-253.1121520996094	995.2615356445315	-778.0463867187502	-412.5452575683595	1058.682006835938	-907.5081176757815	-417.848114013672	1026.763061523438	-934.7584228515627	-417.4162597656251	1027.336181640625	-877.5412597656252	-299.2542724609376	745.4974365234376	-1101.278198242188	-267.1213073730469	667.4678344726564	-1102.02880859375	-219.8414459228516	673.7681884765626	-1086.18115234375	-293.1854553222657	614.1397094726564	-1090.626708984375	-300.2389526367188	504.2515258789064	-1081.289184570313	-256.5039978027344	489.739715576172	-958.8225097656252	-251.290512084961	379.2641906738282	-1049.704956054688	-314.2120056152344	344.0026550292969	-1097.502807617188	-273.4541015625001	334.1737670898438	-1078.549926757813	-282.4525146484376	254.4473266601563	-1049.4150390625	-366.4923095703126	120.4091110229492	-1063.919677734375	-337.7334289550782	131.970947265625	-983.9241333007815	-425.2168273925782	90.84423065185548	-1022.797119140625	-220.6365661621094	52.73569869995119	-987.5010986328127	-215.2859191894532	53.92686843872072	-1036.018920898438	-253.606674194336	39.20648193359376	-1089.538940429688	-312.2285766601563	792.0044555664065	-708.7593383789064	-271.6011657714844	740.5838623046876	-709.3878784179689	-240.5717163085938	747.2985229492189	-720.2329711914064	-295.8483581542969	658.1807861328126	-716.0268554687501	-304.9676208496094	504.4960327148439	-741.5123901367189	-265.4057312011719	493.5432128906251	-864.852966308594	-270.2320251464844	352.5264892578126	-804.3043212890627	-329.3444519042969	282.4229125976563	-744.5160522460939	-294.2604370117188	272.4993286132813	-776.5626220703127	-309.9444885253907	229.3412322998047	-812.4099121093752	-390.3710021972657	118.161735534668	-772.2438964843752	-362.5342102050782	139.647689819336	-853.947937011719	-449.3732910156251	99.47605895996097	-826.1113891601565	-245.7871398925782	57.43286514282228	-837.669372558594	-245.6618652343751	56.51362228393556	-795.2105712890627	-283.1769104003907	37.06694030761719	-742.3430786132814	-326.5368652343751	1635.82373046875	-807.362487792969	
1171	5.850000000000001	-217.5703887939454	1720.739501953125	-884.9781494140627	-356.2338256835938	1600.990234375	-962.832214355469	-396.2652282714845	1487.039672851563	-905.2210693359377	-416.7881774902345	1161.823364257813	-904.1043701171877	-253.2738800048829	1425.10791015625	-898.1832275390627	-285.4451904296876	1454.928588867188	-1059.37548828125	-296.8097229003907	1263.430541992188	-1186.282592773438	-254.5006256103516	1241.874145507813	-1169.456176757813	-277.4041137695313	1198.87255859375	-1206.591796875	-245.6391143798829	1120.192260742188	-1205.615844726563	-313.4100952148438	1095.560546875	-1145.856689453125	-141.244857788086	1130.267211914063	-971.9229736328127	-93.50057983398439	1085.88330078125	-1011.742492675781	-73.24686431884767	1141.625	-918.8708496093752	-297.8450317382813	1448.877197265625	-737.6468505859376	-315.9902343750001	1250.454345703125	-622.1710205078126	-275.2856750488282	1225.988159179688	-635.6918334960939	-304.5904846191407	1182.256103515625	-605.2454833984376	-280.5689392089844	1113.350830078125	-602.1824951171876	-332.4698791503907	1073.564086914063	-660.3346557617189	-128.9481811523438	1144.388671875	-827.7823486328127	-100.1485977172852	1092.971923828125	-778.0203857421877	-51.45859527587892	1144.914794921875	-872.1341552734377	-254.8326263427735	989.1060180664065	-1029.85546875	-253.406478881836	995.0811767578127	-777.9739990234377	-412.6065368652345	1058.478515625	-907.5286254882815	-418.052215576172	1026.711791992188	-934.8301391601565	-417.7164916992189	1027.163940429688	-877.5323486328127	-299.2875671386719	745.4351196289064	-1101.327392578125	-267.1171875000001	667.3579101562501	-1102.10009765625	-219.8410186767579	673.7757568359376	-1086.290893554688	-293.0586547851563	614.0619506835939	-1090.723510742188	-299.9665832519532	504.2227783203126	-1081.423217773438	-256.3589172363282	489.6978149414064	-958.967468261719	-251.1065673828126	379.0984497070313	-1049.760498046875	-314.1294555664063	344.0009155273438	-1097.5810546875	-273.3069458007813	334.1005859375001	-1078.666137695313	-282.3423767089844	254.402572631836	-1049.406860351563	-366.5853576660157	120.4369430541992	-1063.91162109375	-337.6979675292969	131.9796447753907	-983.9382934570315	-425.5458068847657	91.12707519531251	-1022.631286621094	-220.6034698486329	52.72618103027345	-987.4929199218752	-215.2802734375001	53.9263153076172	-1036.031005859375	-253.558822631836	39.14806747436524	-1089.54150390625	-312.4837951660157	791.783142089844	-708.7121582031251	-271.7366333007813	740.4890747070314	-709.3898315429689	-240.7326965332032	747.1474609375001	-719.9929809570314	-295.9120178222657	657.9747924804689	-715.8744506835939	-304.6683349609376	504.2264404296876	-741.3126831054689	-264.8767395019532	493.369110107422	-864.559020996094	-269.9541015625001	352.4209594726563	-804.075378417969	-329.1349487304688	282.3319702148438	-744.3616943359376	-294.2333679199219	272.4449768066407	-776.4725341796877	-310.4657287597657	229.4218292236329	-812.6708984375002	-390.3602600097657	118.1413955688477	-772.1994628906252	-362.5748596191407	139.6792907714844	-853.8737792968752	-449.3932495117189	99.44515228271487	-826.1154785156252	-245.7901611328126	57.45322418212892	-837.5974731445315	-245.7083587646485	56.53652191162111	-795.1854248046877	-283.1646728515626	37.06384277343751	-742.2885742187501	-326.7203674316407	1635.75	-807.569763183594	
1172	5.855	-217.6801757812501	1720.5546875	-885.172058105469	-356.4862670898438	1600.99169921875	-963.1250000000002	-396.3885803222657	1486.899658203125	-905.392761230469	-416.9830932617189	1161.701538085938	-904.1145019531252	-253.0111389160157	1424.904541015625	-897.937683105469	-285.6865539550782	1454.715698242188	-1059.4853515625	-296.8767700195313	1263.067749023438	-1186.2138671875	-254.5998229980469	1241.500610351563	-1169.316284179688	-277.5614318847657	1198.409912109375	-1206.480712890625	-245.7484741210938	1119.722778320313	-1205.331909179688	-313.7650146484376	1095.137451171875	-1145.507934570313	-141.4313049316407	1130.18359375	-971.679626464844	-93.54463195800783	1085.866455078125	-1011.570556640625	-73.25131225585939	1141.684326171875	-918.6851196289065	-298.0593566894532	1448.81787109375	-737.7234497070314	-316.4241943359376	1250.294311523438	-622.2924194335939	-275.7583618164063	1225.863891601563	-635.8206787109376	-305.0518188476563	1182.118530273438	-605.3784790039064	-281.1721496582032	1113.230346679688	-602.3609008789064	-332.8768615722657	1073.46826171875	-660.9627075195314	-129.0863952636719	1144.382690429688	-827.590270996094	-100.3680725097657	1092.947509765625	-777.771911621094	-51.47919082641603	1144.98876953125	-871.791198730469	-254.9261474609376	988.972839355469	-1029.85107421875	-253.6319274902344	994.9094848632815	-777.8997192382815	-412.7602844238282	1058.390869140625	-907.5361328125002	-418.2913208007814	1026.629516601563	-934.799743652344	-417.9997863769532	1027.054321289063	-877.532165527344	-298.6540222167969	745.2731933593751	-1101.3115234375	-267.0534057617188	667.2944335937501	-1102.185180664063	-219.8042144775391	673.8035888671876	-1086.353515625	-292.8616638183594	613.9932861328126	-1090.837768554688	-299.6695861816407	504.059051513672	-1081.557739257813	-256.2774963378907	489.6707153320314	-959.0701293945315	-251.0195770263672	379.0252075195313	-1049.891357421875	-313.9817504882813	343.9956665039063	-1097.7138671875	-273.1555175781251	334.0872192382813	-1078.752075195313	-282.3099670410157	254.3246002197266	-1049.462158203125	-366.5854492187501	120.4049911499024	-1063.935302734375	-337.7188110351563	131.958480834961	-983.9583129882815	-425.2408142089845	90.8296356201172	-1022.819519042969	-220.5875549316407	52.74205017089845	-987.5263671875002	-215.3634490966797	53.85536956787111	-1036.119995117188	-253.5456542968751	39.1704216003418	-1089.509399414063	-312.7388000488282	791.6386718750002	-708.5789184570314	-271.9112243652344	740.4996337890626	-709.0202636718751	-240.8791961669922	747.0809326171876	-719.8010864257814	-295.9302368164063	657.8278198242189	-715.6697387695314	-304.4380493164063	504.0203247070314	-741.0847778320314	-264.4631042480469	493.2525329589845	-864.3875732421877	-269.6967468261719	352.3230895996094	-803.864196777344	-328.9833374023438	282.2225036621094	-744.2518310546876	-294.0773010253907	272.2906494140626	-776.2490844726565	-310.3433532714844	229.3549346923829	-812.592712402344	-390.4046630859376	118.1001739501953	-772.1914062500002	-363.4212951660157	139.9685668945313	-853.9787597656252	-449.3729553222657	99.45406341552737	-826.0957031250002	-245.768539428711	57.43646240234376	-837.5332641601565	-245.7126617431641	56.55494308471681	-795.1232910156252	-283.1792907714844	37.03436660766602	-742.2517089843751	-326.9645080566407	1635.675903320313	-807.5969238281252	
1173	5.86	-217.8408203125001	1720.447631835938	-885.454284667969	-356.4635314941407	1600.736694335938	-963.0872802734377	-396.5414428710939	1486.795776367188	-905.5601806640627	-417.117889404297	1161.583618164063	-904.082702636719	-253.1546478271485	1424.75390625	-897.9472656250002	-285.9393005371094	1454.526245117188	-1059.651123046875	-296.7925720214844	1262.708984375	-1186.089599609375	-254.7591400146485	1241.167114257813	-1169.216552734375	-277.6596679687501	1197.943969726563	-1206.2666015625	-245.7785797119141	1119.3994140625	-1205.114013671875	-313.9083251953126	1094.715698242188	-1145.270263671875	-141.4022827148438	1130.1103515625	-971.483581542969	-93.5090789794922	1085.804077148438	-1011.315856933594	-73.27796173095705	1141.699584960938	-918.4263305664065	-298.2689208984376	1448.76708984375	-737.8014526367189	-316.9569091796876	1250.064697265625	-622.5229492187501	-276.1578369140626	1225.697998046875	-635.9342041015626	-305.5824279785157	1181.92236328125	-605.5340576171876	-281.7506408691407	1113.0625	-602.5668334960939	-333.4749145507813	1073.33935546875	-661.2714233398439	-129.2195434570313	1144.298461914063	-827.3958129882815	-100.6098937988282	1092.92138671875	-777.5723876953127	-51.5865936279297	1145.01416015625	-871.4346923828127	-254.9831237792969	988.8211059570315	-1029.844848632813	-253.8848724365235	994.7261352539065	-777.8648071289065	-413.0358886718751	1058.37158203125	-907.4807128906252	-418.5368041992189	1026.507202148438	-934.8137207031252	-418.2496643066407	1026.920166015625	-877.5472412109377	-299.2886657714844	745.2344970703126	-1101.446899414063	-266.9496154785157	667.2953491210939	-1102.3388671875	-219.7265930175782	673.8140258789064	-1086.442504882813	-292.8427429199219	613.9100952148439	-1090.8642578125	-299.6793823242188	504.0622558593751	-1081.68603515625	-256.0141906738282	489.7182006835939	-959.1462402343752	-250.8666687011719	378.9483642578126	-1049.96044921875	-313.8091735839844	343.9048156738282	-1097.802368164063	-273.0857238769532	333.9958496093751	-1078.834228515625	-282.2272644042969	254.2783355712891	-1049.511962890625	-366.4969787597657	120.3282318115235	-1063.9501953125	-337.7069396972657	131.9691467285157	-983.9553833007815	-425.5448608398439	91.17010498046876	-1022.624877929688	-220.5783233642579	52.72830200195314	-987.5147705078127	-215.2767486572266	53.9520835876465	-1036.07373046875	-253.6416931152344	39.10065078735352	-1089.563598632813	-312.9738464355469	791.4438476562502	-708.4978637695314	-272.0302734375001	740.3150024414064	-708.8453979492189	-241.0511169433594	746.9659423828126	-719.6819458007814	-296.0055236816407	657.6439819335939	-715.5421142578126	-304.2012634277344	503.828582763672	-740.8855590820314	-265.6831970214844	493.3342895507814	-864.4705200195315	-269.4388122558594	352.1074218750001	-803.7288818359377	-328.8189086914063	282.0908813476563	-744.1449584960939	-294.0770568847657	272.2085876464844	-776.2337646484377	-309.8545227050782	229.1861419677735	-812.204284667969	-390.4236145019532	118.0597076416016	-772.1582641601565	-362.5500793457032	139.6746673583985	-853.893737792969	-449.3880004882814	99.43151855468753	-826.0866699218752	-245.7727813720704	57.42513275146486	-837.4691162109377	-245.6825408935547	56.55695724487306	-795.0923461914065	-283.2029418945313	37.00189208984376	-742.2208862304689	-327.2430114746094	1635.602172851563	-807.501892089844	
